<svg width="415" height="312" viewBox="0 0 415 312" fill="none" xmlns="http://www.w3.org/2000/svg">
<g clip-path="url(#clip0_352_15)">
<path d="M238.58 127.035H209.2V142.315H238.58V127.035Z" fill="#98A9C9"/>
<path d="M241.13 142.315H206.66C205.09 142.315 203.66 143.305 203.13 144.865H244.65C244.13 143.305 242.69 142.315 241.12 142.315H241.13Z" fill="#CBD4E6"/>
<path d="M286.29 72.085H161.5C160.539 72.085 159.76 72.864 159.76 73.825V132.535C159.76 133.496 160.539 134.275 161.5 134.275H286.29C287.251 134.275 288.03 133.496 288.03 132.535V73.825C288.03 72.864 287.251 72.085 286.29 72.085Z" fill="#CBD4E6"/>
<path d="M163.62 75.565V103.315V127.035V130.795H284.17V127.035V103.315V75.565H163.62Z" fill="#EBEFFC"/>
<path d="M261.34 82.485H186.44C185.68 82.485 185.06 83.105 185.06 83.865V85.885H262.71V83.865C262.71 83.105 262.09 82.485 261.33 82.485H261.34Z" fill="#5E7AF4"/>
<path d="M185.07 122.495C185.07 123.255 185.69 123.875 186.45 123.875H261.35C262.11 123.875 262.73 123.255 262.73 122.495V85.885H185.08V122.495H185.07Z" fill="white"/>
<path d="M187.66 84.825C188.013 84.825 188.3 84.5384 188.3 84.185C188.3 83.8315 188.013 83.545 187.66 83.545C187.307 83.545 187.02 83.8315 187.02 84.185C187.02 84.5384 187.307 84.825 187.66 84.825Z" fill="#EAEDF7"/>
<path d="M190.16 84.825C190.513 84.825 190.8 84.5384 190.8 84.185C190.8 83.8315 190.513 83.545 190.16 83.545C189.807 83.545 189.52 83.8315 189.52 84.185C189.52 84.5384 189.807 84.825 190.16 84.825Z" fill="#EAEDF7"/>
<path d="M192.65 84.825C193.003 84.825 193.29 84.5384 193.29 84.185C193.29 83.8315 193.003 83.545 192.65 83.545C192.297 83.545 192.01 83.8315 192.01 84.185C192.01 84.5384 192.297 84.825 192.65 84.825Z" fill="#EAEDF7"/>
<path d="M267.39 144.865H251.11L268.81 162.655H285.09L267.39 144.865Z" fill="#5B3F33"/>
<path d="M202.09 144.865H218.36L200.66 162.655H184.39L202.09 144.865Z" fill="#5B3F33"/>
<path d="M214.45 151.165H214.8H228.92H229.26H247.85L259.28 162.655H268.81L251.11 144.865H230.19H229.8H213.92H213.53H192.61L174.9 162.655H184.43L195.86 151.165H214.45Z" fill="#774E3D"/>
<path d="M230.19 162.655H229.8H213.92H213.53H184.43L180.13 166.975H214.45H214.8H228.92H229.26H263.58L259.28 162.655H230.19Z" fill="#774E3D"/>
<path d="M0 297.565C0 284.015 110.16 281.485 210.73 281.485C341.97 281.485 591.56 311.585 218.51 311.585C131.21 311.585 0 308.255 0 297.565Z" fill="#EAEDF7"/>
<path d="M88.22 146.335H50.51V149.235C50.51 149.235 51.95 150.515 52.61 152.565C52.81 153.175 52.95 153.855 52.95 154.595C52.95 157.795 50.51 159.755 50.51 159.755V162.655H88.22C89.41 162.655 90.38 161.685 90.38 160.495V148.505C90.38 147.305 89.41 146.345 88.22 146.345V146.335Z" fill="#3655CD"/>
<path d="M42.71 154.595C42.71 153.855 42.57 153.185 42.37 152.565H78.69V160.905H41.42L40.27 159.755C40.27 159.755 42.71 157.795 42.71 154.595Z" fill="#EAEDF7"/>
<path d="M40.27 149.235L41.73 147.785H78.69V152.565H42.37C41.7 150.525 40.27 149.235 40.27 149.235Z" fill="#BAC8CA"/>
<path d="M40.27 149.235V146.335H77.98C79.17 146.335 80.14 147.305 80.14 148.495V160.485C80.14 161.685 79.17 162.645 77.98 162.645H40.27V159.745H77.24V149.235H40.27Z" fill="#3655CD"/>
<path d="M323.96 146.335H361.67V149.235C361.67 149.235 360.23 150.515 359.57 152.565C359.37 153.175 359.23 153.855 359.23 154.595C359.23 157.795 361.67 159.755 361.67 159.755V162.655H323.96C322.77 162.655 321.8 161.685 321.8 160.495V148.505C321.8 147.305 322.77 146.345 323.96 146.345V146.335Z" fill="#CB5176"/>
<path d="M369.47 154.595C369.47 153.855 369.61 153.185 369.81 152.565H333.49V160.905H370.76L371.91 159.755C371.91 159.755 369.47 157.795 369.47 154.595Z" fill="#EAEDF7"/>
<path d="M371.91 149.235L370.45 147.785H333.49V152.565H369.81C370.48 150.525 371.91 149.235 371.91 149.235Z" fill="#BAC8CA"/>
<path d="M371.91 149.235V146.335H334.2C333.01 146.335 332.04 147.305 332.04 148.495V160.485C332.04 161.685 333.01 162.645 334.2 162.645H371.91V159.745H334.94V149.235H371.91Z" fill="#CB5176"/>
<path d="M96.73 130.015H59.02V132.915C59.02 132.915 60.46 134.195 61.12 136.245C61.32 136.855 61.46 137.535 61.46 138.275C61.46 141.475 59.02 143.435 59.02 143.435V146.335H96.73C97.92 146.335 98.89 145.365 98.89 144.175V132.185C98.89 130.985 97.92 130.025 96.73 130.025V130.015Z" fill="#F0CD7E"/>
<path d="M51.22 138.275C51.22 137.535 51.08 136.865 50.88 136.245H87.2V144.585H49.93L48.78 143.435C48.78 143.435 51.22 141.475 51.22 138.275Z" fill="#EAEDF7"/>
<path d="M48.78 132.915L50.24 131.465H87.2V136.245H50.88C50.21 134.205 48.78 132.915 48.78 132.915Z" fill="#BAC8CA"/>
<path d="M48.78 132.915V130.015H86.49C87.68 130.015 88.65 130.985 88.65 132.175V144.165C88.65 145.365 87.68 146.325 86.49 146.325H48.78V143.425H85.75V132.915H48.78Z" fill="#F0CD7E"/>
<path d="M389.32 293.735L390.32 174.165H380.95L381.77 293.735C381.77 295.145 382.93 296.285 384.34 296.285H386.75C388.16 296.285 389.31 295.145 389.32 293.735Z" fill="#373C45"/>
<path d="M285.93 179.015H390.32V174.165H285.93V179.015Z" fill="#373C45"/>
<path d="M289.69 293.525L290.66 174.155H281.19L282.03 293.515C282.03 294.925 283.19 296.065 284.6 296.065H287.12C288.53 296.065 289.68 294.925 289.69 293.515V293.525Z" fill="#373C45"/>
<path d="M31.2501 293.525L32.3201 174.155H22.8501L24.3001 293.535C24.3201 294.945 25.4601 296.075 26.8701 296.075H28.6701C30.0801 296.075 31.2301 294.935 31.2401 293.525H31.2501Z" fill="#373C45"/>
<path d="M128.78 293.735L129.85 174.155H120.38L121.83 293.735C121.85 295.145 122.99 296.275 124.4 296.275H126.2C127.61 296.275 128.76 295.135 128.77 293.725L128.78 293.735Z" fill="#373C45"/>
<path d="M22.8602 179.015L285.92 179.015V174.165L22.8602 174.165V179.015Z" fill="#373C45"/>
<path d="M22.85 174.155L390.31 174.155V162.655L22.85 162.655V174.155Z" fill="#87614C"/>
<path d="M285.93 174.155H390.32V162.655H285.93V174.155Z" fill="#5B3F33"/>
<path d="M11.3102 106.205L73.4202 106.205L73.4202 29.155L11.3102 29.155L11.3102 106.205Z" fill="#EAEDF7"/>
<path d="M27.5302 68.945H57.1902V66.145H27.5302V68.945Z" fill="white"/>
<path d="M20.6001 77.535H64.1401V74.735H20.6001V77.535Z" fill="white"/>
<path d="M20.6001 83.615H64.1401V80.815H20.6001V83.615Z" fill="white"/>
<path d="M20.6001 89.695H64.1401V86.895H20.6001V89.695Z" fill="white"/>
<path d="M20.6001 95.765H64.1401V92.965H20.6001V95.765Z" fill="white"/>
<path d="M42.3701 61.655C48.4673 61.655 53.4101 56.7122 53.4101 50.615C53.4101 44.5177 48.4673 39.575 42.3701 39.575C36.2729 39.575 31.3301 44.5177 31.3301 50.615C31.3301 56.7122 36.2729 61.655 42.3701 61.655Z" fill="white"/>
<path d="M95.3502 64.365H132.69V0.414974L95.3502 0.414974V64.365Z" fill="#EAEDF7"/>
<path d="M114.02 32.925C120.117 32.925 125.06 27.9822 125.06 21.885C125.06 15.7877 120.117 10.845 114.02 10.845C107.923 10.845 102.98 15.7877 102.98 21.885C102.98 27.9822 107.923 32.925 114.02 32.925Z" fill="white"/>
<path d="M84.2902 97.725H106.41V75.605H84.2902V97.725Z" fill="#EAEDF7"/>
<path d="M86.6101 92.655H104.09V77.925H86.6101V92.655Z" fill="white"/>
<path d="M376.42 105.515H402.68V60.545H376.42V105.515Z" fill="#EAEDF7"/>
<path d="M389.54 83.395C393.826 83.395 397.3 79.9207 397.3 75.635C397.3 71.3493 393.826 67.875 389.54 67.875C385.255 67.875 381.78 71.3493 381.78 75.635C381.78 79.9207 385.255 83.395 389.54 83.395Z" fill="white"/>
<path d="M344.84 52.615H366.96V30.495L344.84 30.495V52.615Z" fill="#EAEDF7"/>
<path d="M347.16 47.545H364.64V32.815H347.16V47.545Z" fill="white"/>
<path d="M314.58 105.505H336.7V83.385H314.58V105.505Z" fill="#EAEDF7"/>
<path d="M316.9 100.435H334.38V85.705H316.9V100.435Z" fill="white"/>
<path d="M314.42 75.885H336.54V53.765H314.42V75.885Z" fill="#EAEDF7"/>
<path d="M316.74 70.815H334.22V56.085H316.74V70.815Z" fill="white"/>
<path d="M265.07 41.905L297.35 41.905V1.85498L265.07 1.85498V41.905Z" fill="#EAEDF7"/>
<path d="M273.5 22.545L288.91 22.545V21.095H273.5V22.545Z" fill="white"/>
<path d="M269.89 27.005L292.52 27.005V25.555L269.89 25.555V27.005Z" fill="white"/>
<path d="M269.89 30.165L292.52 30.165V28.715L269.89 28.715V30.165Z" fill="white"/>
<path d="M269.89 33.325H292.52V31.875L269.89 31.875V33.325Z" fill="white"/>
<path d="M269.89 36.485H292.52V35.035H269.89V36.485Z" fill="white"/>
<path d="M281.21 18.755C284.38 18.755 286.95 16.1851 286.95 13.015C286.95 9.84486 284.38 7.27498 281.21 7.27498C278.04 7.27498 275.47 9.84486 275.47 13.015C275.47 16.1851 278.04 18.755 281.21 18.755Z" fill="white"/>
<path d="M339.54 248.795H316.68C316.68 248.795 304 238.145 314.18 213.575C324.36 188.995 302.28 186.335 303.69 169.585C305.1 152.835 317.84 119.015 329.79 124.815C341.73 130.605 348 145.325 332.65 159.415C317.31 173.505 345.96 184.775 340.48 202.775C335 220.775 364.73 216.585 339.54 248.805V248.795Z" fill="#94D186"/>
<path d="M338.99 157.205L339.54 157.495C339.5 157.575 336.32 163.365 328.19 166.845C328.23 166.605 328.27 166.365 328.33 166.115C335.98 162.715 338.95 157.275 338.99 157.195V157.205Z" fill="#B9EDAD"/>
<path d="M314.62 169.425C314.83 175.675 317.33 180.095 321.58 186.955C324.21 186.455 325.38 185.675 325.41 185.655L325.77 186.165C325.65 186.255 324.48 187.045 321.95 187.565C322.11 187.825 322.26 188.065 322.42 188.325C323.88 190.665 325.53 193.315 327.32 196.395L326.78 196.715C324.99 193.645 323.34 190.995 321.89 188.665C321.68 188.325 321.49 188.015 321.29 187.695C320.12 187.895 318.7 188.035 317 188.035C315.41 188.035 313.56 187.905 311.47 187.605C311.29 187.355 311.11 187.115 310.93 186.865C315.33 187.535 318.61 187.435 320.91 187.075C314.41 176.565 311.87 171.455 316 155.935C317.15 151.625 318.85 147.575 320.81 143.885C318.16 139.765 316.74 135.945 315.98 133.035C316.13 132.795 316.29 132.555 316.44 132.325C317.13 135.165 318.49 139.045 321.15 143.255C325.01 136.165 329.76 130.445 333.16 126.805C333.33 126.925 333.5 127.045 333.67 127.175C328.47 132.725 320.02 143.245 316.6 156.095C315.2 161.365 314.57 165.365 314.6 168.805C314.66 168.805 314.72 168.805 314.78 168.805C320.38 168.805 324.84 167.675 328.32 166.125C328.26 166.365 328.22 166.615 328.18 166.855C324.68 168.355 320.27 169.435 314.77 169.435C314.72 169.435 314.66 169.435 314.61 169.435L314.62 169.425Z" fill="#7ABA68"/>
<path d="M344.66 251.245H325.25C325.25 251.245 330.89 238.925 319.41 223.065C307.93 207.205 314.4 197.595 320.45 189.455C326.5 181.315 313.35 164.275 318.78 157.345C324.21 150.415 357.91 146.455 349.83 170.245C341.74 194.045 362.51 194.455 349.83 217.835C337.15 241.215 350.51 238.495 344.67 251.235L344.66 251.245Z" fill="#7ABA68"/>
<path d="M358.49 249.735C358.49 249.735 355.19 238.615 367.64 227.195C380.09 215.765 364.9 203.555 367.64 190.565C370.38 177.575 375.55 155.185 353.01 157.535C330.47 159.885 356.3 194.795 345.81 213.265C335.32 231.735 318.57 224.065 340.64 262.265L358.49 249.745V249.735Z" fill="#94D186"/>
<path d="M348.37 257.775L347.82 258.065C347.78 257.995 347.67 257.775 347.5 257.435L348.02 257.065C348.23 257.495 348.36 257.745 348.37 257.765V257.775Z" fill="#B9EDAD"/>
<path d="M346.95 229.195C348.38 228.015 349.68 226.795 350.87 225.545C349.61 224.905 345.63 222.625 342.42 218.185C342.56 218.015 342.7 217.845 342.83 217.675C346.15 222.355 350.36 224.605 351.31 225.065C359.81 215.845 362.06 204.685 357.96 191.805C357.85 191.455 357.75 191.105 357.64 190.755C357.39 190.785 356.99 190.815 356.42 190.815C354.47 190.815 350.81 190.425 346.72 188.095C346.66 187.815 346.6 187.545 346.55 187.265C351.69 190.375 356.19 190.265 357.45 190.155C353.75 177.205 354.65 163.425 355.33 157.385C355.55 157.385 355.75 157.385 355.96 157.385C355.53 161.165 355.01 168.095 355.63 175.975C363.55 173.955 367.77 171.005 369.88 168.975C369.92 169.235 369.95 169.505 369.98 169.775C367.7 171.855 363.41 174.655 355.67 176.605C356.09 181.455 356.95 186.625 358.54 191.615C360.53 197.845 361.03 203.675 360.11 209.095C364.27 208.845 367.6 207.695 370.2 206.305C370.27 206.505 370.34 206.705 370.41 206.905C367.72 208.325 364.29 209.495 360.01 209.735C358.57 217.215 354.35 223.895 347.33 229.685C338.79 236.735 346.25 253.485 348 257.085L347.48 257.455C345.72 253.915 337.85 236.705 346.94 229.205L346.95 229.195Z" fill="#B9EDAD"/>
<path d="M349.46 242.635L346.85 257.045H363.55L366.16 242.635H349.46Z" fill="#3655CD"/>
<path d="M345.91 262.255H362.61L363.55 257.045H346.85L345.91 262.255Z" fill="#3655CD"/>
<path d="M342.79 279.475H359.49L362.61 262.255H345.91L342.79 279.475Z" fill="#D4A54E"/>
<path d="M341.9 284.425C341.08 288.935 338.96 292.935 335.98 296.065H344.36C351.22 296.065 357.31 291.295 358.57 284.555C358.57 284.505 358.59 284.465 358.59 284.415L359.49 279.465H342.79L341.89 284.415L341.9 284.425Z" fill="#3655CD"/>
<path d="M319.4 257.045H336.1H346.85L349.46 242.635H336.1H319.4H306.04L308.65 257.045H319.4Z" fill="#5E7AF4"/>
<path d="M319.4 257.045H308.65L309.59 262.255H319.4H336.1H345.91L346.85 257.045H336.1H319.4Z" fill="#3655CD"/>
<path d="M319.4 262.255H309.59L312.7 279.475H319.4H336.1H342.79L345.91 262.255H336.1H319.4Z" fill="#F0CD7E"/>
<path d="M342.79 279.475H312.7L313.6 284.425C313.6 284.425 313.62 284.515 313.62 284.565C314.88 291.305 320.97 296.075 327.83 296.075H335.98C338.96 292.935 341.08 288.945 341.9 284.435L342.8 279.485L342.79 279.475Z" fill="#5E7AF4"/>
<path d="M252.56 162.755L253.06 161.445C253.2 161.075 253.56 160.835 253.95 160.835H300.37C300.77 160.835 301.12 161.085 301.26 161.455L301.76 162.765H252.56V162.755Z" fill="#373C45"/>
<path d="M273.26 142.255C272.96 142.555 272.96 143.045 273.26 143.345C273.56 143.645 274.05 143.645 274.35 143.345C274.65 143.045 274.65 142.555 274.35 142.255C274.05 141.955 273.56 141.955 273.26 142.255Z" fill="#373C45"/>
<path d="M273.165 142.162L267.091 148.236L268.371 149.516L274.445 143.442L273.165 142.162Z" fill="#373C45"/>
<path d="M256.01 160.605L256.89 160.235L256.38 159.715L256.01 160.605Z" fill="#373C45"/>
<path d="M256.38 159.715L256.9 160.235L258.06 159.745C258.06 159.745 258.1 159.715 258.13 159.695L256.92 158.485C256.92 158.485 256.88 158.525 256.87 158.555L256.38 159.715Z" fill="#373C45"/>
<path d="M257.08 158.245C257.01 158.315 256.96 158.395 256.91 158.485L258.12 159.695C258.21 159.645 258.29 159.595 258.36 159.525L258.45 159.435L257.17 158.155L257.08 158.245Z" fill="#373C45"/>
<path d="M266.865 148.475L257.178 158.163L258.458 159.443L268.145 149.755L266.865 148.475Z" fill="#373C45"/>
<path d="M267.102 148.234L266.861 148.475L268.141 149.755L268.382 149.514L267.102 148.234Z" fill="#373C45"/>
<path d="M255.25 161.015L255.64 159.445C255.69 159.225 255.89 159.075 256.11 159.075H259.67L257.62 160.885C257.53 160.965 257.41 161.015 257.29 161.015H255.24H255.25Z" fill="#373C45"/>
<path d="M222.92 156.115C222.92 156.115 225.7 155.485 228.51 155.485C231.32 155.485 235.15 156.655 237.93 157.555C240.97 158.535 245.34 159.795 245.34 162.645H221.05L222.92 156.105V156.115Z" fill="#AD746F"/>
<path d="M189.91 67.755C191.34 61.125 192.86 57.115 187.7 49.125C187.7 49.125 172.28 51.735 166.41 66.295C166.11 67.035 165.86 67.775 165.64 68.505L161.87 68.905C161.87 68.905 164.58 78.065 156.44 90.065L170.9 92.595C172.99 84.615 175.7 81.975 175.7 81.975C175.7 81.975 179.27 84.145 182.46 82.675C185.64 81.215 187.52 75.005 187.52 75.005C187.52 75.005 190.78 74.665 190.55 72.265C190.31 69.865 189.92 67.745 189.92 67.745L189.91 67.755Z" fill="#AD746F"/>
<path d="M194.97 38.235C189.58 32.205 179.03 32.285 179.03 32.285C179.03 32.285 172.07 26.415 164.04 28.045C156.02 29.675 154.09 39.135 154.09 39.135C154.09 39.135 146.82 42.725 146.63 51.095C146.6 52.325 146.69 53.415 146.84 54.405C146.5 56.225 146.15 59.075 146.94 60.845C148.17 63.595 148.85 63.825 148.85 63.825C148.85 63.825 148.12 68.075 150.76 70.025C153.4 71.975 156.15 72.045 156.15 72.045C156.15 72.045 156.75 73.915 158.59 74.445C160.43 74.975 162.16 74.515 162.16 74.515C162.16 74.515 167.39 77.435 171.29 74.655C174.13 75.695 179.23 76.265 182.43 69.045C182.43 69.045 187.33 68.785 188.06 63.405C188.06 63.405 193.24 64.225 195.67 59.685C198.09 55.145 197.16 50.755 197.16 50.755C197.16 50.755 200.84 44.795 194.96 38.215L194.97 38.235Z" fill="#27212A"/>
<path d="M155.97 60.645C155.91 60.645 155.85 60.625 155.8 60.595C155.7 60.535 153.36 58.995 153.05 56.655C152.89 55.465 153.28 54.295 154.22 53.175C153.86 52.505 152.86 50.305 153.54 47.865C154.08 45.925 155.55 44.325 157.9 43.105C158.05 43.025 158.24 43.085 158.32 43.235C158.4 43.385 158.34 43.575 158.19 43.655C155.99 44.785 154.63 46.255 154.14 48.025C153.41 50.635 154.85 53.015 154.87 53.035C154.94 53.155 154.93 53.305 154.84 53.405C153.92 54.435 153.53 55.495 153.67 56.555C153.95 58.615 156.12 60.045 156.14 60.055C156.29 60.145 156.33 60.345 156.23 60.485C156.17 60.575 156.07 60.625 155.97 60.625V60.645Z" fill="#423848"/>
<path d="M162.67 38.515C162.67 38.515 162.58 38.505 162.53 38.485C162.37 38.405 162.31 38.225 162.39 38.065C162.43 37.975 163.52 35.805 165.82 35.145C167.37 34.705 169.08 35.055 170.91 36.195C171.06 36.285 171.1 36.475 171.01 36.625C170.92 36.775 170.73 36.815 170.58 36.725C168.91 35.685 167.37 35.355 166 35.745C163.96 36.325 162.97 38.315 162.96 38.335C162.91 38.445 162.79 38.515 162.68 38.515H162.67Z" fill="#423848"/>
<path d="M162.69 55.215C162.54 55.215 162.41 55.105 162.38 54.945C162.37 54.875 162.13 53.235 163.17 51.965C163.87 51.105 164.97 50.635 166.43 50.565C166.59 50.545 166.75 50.695 166.76 50.865C166.76 51.035 166.64 51.185 166.46 51.195C165.18 51.255 164.24 51.645 163.65 52.355C162.79 53.405 162.99 54.835 162.99 54.845C163.02 55.015 162.9 55.175 162.73 55.205C162.71 55.205 162.7 55.205 162.68 55.205L162.69 55.215Z" fill="#423848"/>
<path d="M209.06 199.075C209.06 199.075 203.13 210.335 200.37 223.395C198.01 234.545 203.1 252.905 201.54 265.945C201.16 268.475 200.42 274.575 199.31 276.345C197.95 278.515 195.1 280.815 194.64 283.795C194.37 285.525 195.29 287.405 197.33 288.495C199.36 289.585 200.82 288.575 201.57 288.685C205.91 289.345 206.53 292.545 213.97 293.985C216.26 294.435 219.84 293.815 221.95 292.355C222.77 291.795 222.35 291.615 221.95 290.935C221.54 290.255 216.54 287.465 214.12 285.845C211.81 284.305 209.43 280.345 209.12 278.795C208.81 277.245 210.36 270.025 211.02 266.995C215.63 246.125 221.37 216.155 224.33 203.985" fill="#904B48"/>
<path d="M262.59 287.255C261.98 286.755 256.18 286.705 253.35 286.005C250.66 285.335 247.07 282.415 246.26 281.065C245.44 279.715 244.45 272.395 244.06 269.315C241.45 248.985 236.42 215.325 234.83 201.615C234.8 198.375 234.01 196.205 230.63 193.965C222.46 188.555 191.26 178.295 155.85 172.525L121.77 192.015C121.77 192.015 123.13 204.415 138.56 207.715C147.51 209.625 162.36 207.475 166.07 207.655C168.78 207.795 200.93 208.965 218.03 209.575C217.76 214.465 217.7 221.425 218.68 228.575C220.23 239.865 231.85 258.725 234.79 271.525C235.29 274.035 236.66 280.025 236.21 282.065C235.66 284.565 233.76 287.695 234.34 290.665C234.67 292.385 236.18 293.835 238.46 294.175C240.75 294.515 241.77 293.065 242.51 292.925C246.82 292.075 248.48 294.875 255.97 293.725C258.28 293.365 261.43 291.575 262.93 289.485C263.51 288.675 263.2 287.765 262.59 287.265V287.255Z" fill="#AD746F"/>
<path d="M226.39 188.825C216.87 185.035 205.2 180.785 187.18 176.035C178.06 173.005 169.09 169.825 167.87 168.655C165.29 166.185 162.76 160.715 162.76 160.715L128.77 161.705C128.77 161.705 118.1 182.475 120.83 191.315C123.56 200.155 128.76 208.525 143.4 208.635C157.34 208.735 191.22 208.745 194.46 208.745C201.34 209.455 208.05 209.635 212.62 209.645C217.35 209.665 221.88 207.545 224.77 203.805C225.65 202.665 226.48 201.375 227.13 199.945C228.76 196.405 228.82 193.465 228.58 191.615C228.42 190.355 227.57 189.285 226.38 188.815L226.39 188.825Z" fill="#F0CD7E"/>
<path d="M181.73 132.635C183.02 130.345 183.35 127.265 182.89 123.725C181.05 120.045 178.52 117.035 175.07 115.135C175.07 115.135 173.73 128.785 173.5 142.005C176.52 138.785 179.18 137.125 181.72 132.635H181.73Z" fill="#CB5176"/>
<path d="M200.96 144.425C200.84 144.115 200.72 143.775 200.6 143.415C200.8 144.035 200.91 144.385 200.91 144.385C200.93 144.395 200.94 144.405 200.96 144.425Z" fill="#E8A3B6"/>
<path d="M139.07 149.745C141.42 143.665 142.85 137.265 143.49 130.775C143.97 125.875 144.43 121.295 144.89 118.845C147 107.635 148.66 98.725 152.17 89.005L151.44 89.125C146.85 89.905 143.04 93.095 141.44 97.455C137.82 107.345 136.15 116.345 134.01 127.715C133.55 130.165 133.09 134.745 132.61 139.645C131.97 146.135 130.53 152.525 128.19 158.615C127.58 160.185 126.99 161.545 126.43 162.645C126.43 162.645 136.31 168.225 169.72 169.695C169.94 169.695 169 165.615 168.96 160.075C144.83 158.015 137.3 153.765 137.3 153.765C137.86 152.665 138.45 151.305 139.06 149.735L139.07 149.745Z" fill="#CB5176"/>
<path d="M201.76 145.245C202.55 146.395 205.66 147.885 209.53 149.295C206.49 147.955 203.61 146.445 201.48 144.835C201.57 144.975 201.67 145.115 201.75 145.245H201.76Z" fill="#E8A3B6"/>
<path d="M225.68 154.915C225.68 154.915 217.13 152.645 209.53 149.295C205.65 147.885 202.55 146.395 201.76 145.245C201.67 145.115 201.58 144.965 201.49 144.835C201.31 144.695 201.13 144.565 200.97 144.425C200.95 144.415 200.94 144.405 200.92 144.385C200.92 144.385 200.81 144.055 200.63 143.475C200.63 143.455 200.62 143.435 200.61 143.415C198.98 138.755 194.89 130.815 191.55 120.595C190.94 118.105 190.39 115.565 189.85 113.075C187.78 103.515 185.82 94.725 180.86 92.835C178.26 91.845 175.71 91.185 173.24 90.525C173.24 90.505 172.88 87.855 167.5 86.065C165.21 85.305 163.08 85.065 161.32 85.105C160.62 85.115 159.98 85.175 159.41 85.255C158.01 85.455 156.99 85.795 156.55 86.065C155.45 86.735 154.16 88.675 154.16 88.675L152.2 89.005C148.69 98.725 147.03 107.635 144.92 118.845C144.46 121.295 144 125.875 143.52 130.775C142.88 137.265 141.44 143.665 139.1 149.745C138.49 151.315 137.9 152.675 137.34 153.775C137.34 153.775 144.87 158.025 169 160.085C168.96 154.615 169.81 147.735 173.54 142.005C173.68 134.245 174.19 126.335 174.6 121.135C174.6 121.135 178.05 129.195 182.1 137.665C185.11 143.965 188.44 150.505 190.92 154.125C192.8 156.865 207.75 161.505 215.11 162.425C220.72 163.005 225.15 162.665 225.15 162.665C225.15 162.665 227.75 160.815 225.72 154.925L225.68 154.915Z" fill="#E8A3B6"/>
<path d="M116.1 242.955C127.12 203.685 138.15 184.605 149.81 184.605C161.47 184.605 171.25 203.755 179.38 243.135C183.52 263.185 186.13 283.415 187.3 293.425C187.48 294.955 186.28 296.285 184.75 296.285H184.72C183.42 296.285 182.32 295.315 182.17 294.025C181.02 284.115 178.42 264.035 174.32 244.145C164.18 195.075 153.81 189.775 149.82 189.775C134.28 189.775 117.44 251.325 109.51 294.185C109.28 295.405 108.23 296.285 106.99 296.285C105.38 296.285 104.16 294.825 104.46 293.245C106.37 283.245 110.48 263.015 116.11 242.965L116.1 242.955Z" fill="#54688A"/>
<path d="M228.38 195.905C224.63 196.765 219 197.885 213.13 198.485C210.66 198.735 208.14 198.895 205.71 198.895C197.15 198.895 188.08 196.305 183.2 194.665C181.06 193.945 179.66 191.895 179.76 189.635C180.43 174.495 181.25 117.505 156.69 104.845C153.57 103.235 150.04 102.335 146.05 102.335C104.49 102.335 110.58 191.725 110.58 191.725C110.58 191.725 112.01 216.985 172.92 216.985C173.03 216.985 173.12 216.985 173.23 216.985C214.92 216.935 227.51 206.435 231.3 199.895C231.36 199.785 231.41 199.675 231.46 199.575C232.29 197.605 230.56 195.415 228.38 195.915V195.905Z" fill="#5E7AF4"/>
<path d="M146.05 102.335C150.04 102.335 153.57 103.235 156.69 104.845C124.88 116.655 130.06 192.705 130.06 192.705C130.06 192.705 131.18 212.345 173.23 216.985C173.12 216.985 173.03 216.985 172.92 216.985C112.01 216.985 110.58 191.725 110.58 191.725C110.58 191.725 104.49 102.335 146.05 102.335Z" fill="#3655CD"/>
<path d="M155.1 112.095C170.48 127.915 169.27 177.865 169.25 178.365C169.25 178.515 169.36 178.635 169.51 178.635C169.65 178.635 169.77 178.525 169.78 178.375C169.79 177.875 171.01 127.695 155.48 111.725C153.97 110.175 152.34 108.995 150.61 108.175C150.45 108.295 150.29 108.405 150.14 108.535C151.91 109.335 153.57 110.525 155.1 112.105V112.095Z" fill="#3655CD"/>
<path d="M118.99 133.275C114.91 146.305 114.14 159.515 114.13 159.645C114.13 159.795 114.23 159.915 114.38 159.925C114.53 159.925 114.65 159.825 114.66 159.675C114.69 159.155 117.88 107.315 144.41 107.315C146.43 107.315 148.34 107.725 150.13 108.535C150.29 108.415 150.44 108.295 150.6 108.175C148.66 107.255 146.59 106.775 144.4 106.775C133.19 106.775 124.4 115.935 118.97 133.265L118.99 133.275Z" fill="#5E7AF4"/>
<path d="M162.79 242.935C174.01 203.665 185.22 184.575 197.07 184.575C208.92 184.575 218.86 203.725 227.14 243.115C231.35 263.165 234.01 283.405 235.2 293.415C235.38 294.945 234.19 296.285 232.65 296.285H232.61C231.3 296.285 230.21 295.305 230.06 294.005C225.23 251.215 212.8 189.795 197.08 189.795C181.36 189.795 164.11 251.335 156.03 294.195C155.8 295.415 154.75 296.285 153.51 296.285H153.46C151.84 296.285 150.63 294.815 150.94 293.235C152.88 283.235 157.07 262.995 162.8 242.945L162.79 242.935Z" fill="#8291AE"/>
<path d="M253.91 286.125C253.91 286.125 263.48 286.245 264.25 288.285C265.39 291.295 258.61 293.825 253.77 294.425C249.11 295.005 235.23 295.465 234.08 292.465C232.93 289.475 235.78 283.655 235.78 283.655C235.78 283.655 238.58 289.005 247.74 289.405C256.9 289.805 253.9 286.125 253.9 286.125H253.91Z" fill="#F0CD7E"/>
<path d="M214.56 286.185C214.56 286.185 223.45 289.725 223.44 291.905C223.42 295.115 216.19 295.055 211.46 293.885C206.9 292.755 194.38 288.785 194.06 285.605C193.65 281.615 198.59 277.415 198.59 277.415C198.59 277.415 199.23 283.375 207.64 287.035C216.04 290.695 214.57 286.185 214.57 286.185H214.56Z" fill="#F0CD7E"/>
<g opacity="0.98">
<path d="M200.47 110.255V99.055H202.66V108.255H207.59V110.255H200.47Z" fill="black"/>
<path d="M213.96 110.445C212.83 110.445 211.83 110.195 210.96 109.705C210.09 109.215 209.41 108.525 208.92 107.655C208.43 106.785 208.18 105.785 208.18 104.655C208.18 103.525 208.43 102.525 208.92 101.655C209.41 100.785 210.09 100.105 210.94 99.615C211.8 99.125 212.79 98.875 213.91 98.875C215.03 98.875 216.02 99.125 216.89 99.615C217.75 100.115 218.43 100.795 218.92 101.665C219.41 102.535 219.66 103.535 219.66 104.665C219.66 105.795 219.42 106.775 218.93 107.645C218.44 108.515 217.77 109.195 216.92 109.695C216.07 110.195 215.08 110.435 213.96 110.435V110.445ZM213.96 108.445C214.63 108.445 215.23 108.285 215.75 107.955C216.27 107.625 216.68 107.185 216.97 106.615C217.26 106.045 217.41 105.395 217.41 104.655C217.41 103.915 217.26 103.265 216.96 102.705C216.66 102.135 216.25 101.695 215.73 101.365C215.21 101.035 214.6 100.875 213.91 100.875C213.22 100.875 212.64 101.035 212.11 101.365C211.58 101.695 211.17 102.135 210.87 102.705C210.57 103.275 210.42 103.925 210.42 104.675C210.42 105.425 210.57 106.065 210.87 106.625C211.17 107.185 211.58 107.635 212.12 107.965C212.66 108.295 213.27 108.455 213.96 108.455V108.445Z" fill="black"/>
<path d="M226.63 110.445C225.49 110.445 224.48 110.195 223.6 109.705C222.72 109.205 222.03 108.525 221.53 107.655C221.03 106.785 220.78 105.785 220.78 104.655C220.78 103.525 221.03 102.525 221.53 101.655C222.03 100.785 222.72 100.105 223.6 99.605C224.48 99.105 225.49 98.865 226.63 98.865C227.31 98.865 227.94 98.965 228.52 99.165C229.1 99.365 229.6 99.645 230.05 100.005C230.5 100.365 230.86 100.775 231.16 101.225L229.37 102.345C229.19 102.055 228.95 101.805 228.66 101.575C228.37 101.355 228.04 101.175 227.69 101.045C227.34 100.915 226.99 100.855 226.63 100.855C225.93 100.855 225.3 101.015 224.76 101.345C224.22 101.675 223.79 102.115 223.48 102.685C223.17 103.255 223.02 103.905 223.02 104.655C223.02 105.405 223.17 106.045 223.48 106.625C223.78 107.205 224.21 107.655 224.77 107.975C225.32 108.305 225.96 108.465 226.69 108.465C227.26 108.465 227.76 108.355 228.2 108.125C228.64 107.905 228.99 107.585 229.25 107.185C229.51 106.775 229.63 106.315 229.63 105.775L231.71 105.455C231.71 106.515 231.49 107.415 231.06 108.155C230.63 108.905 230.03 109.465 229.27 109.855C228.51 110.245 227.63 110.435 226.64 110.435L226.63 110.445ZM227 105.965V104.255H231.7V105.615L230.52 105.965H227Z" fill="black"/>
<path d="M233.19 110.255V99.055H235.38V110.255H233.19Z" fill="black"/>
<path d="M237.81 110.255V99.055H240.1L245.57 106.575V99.055H247.75V110.255H245.57L240 102.595V110.255H237.81Z" fill="black"/>
</g>
</g>
<defs>
<clipPath id="clip0_352_15">
<rect width="414.82" height="311.17" fill="white" transform="translate(0 0.414978)"/>
</clipPath>
</defs>
</svg>
